<svg width="16" height="16" viewBox="0 0 16 16" fill="none" xmlns="http://www.w3.org/2000/svg">
<path d="M13.1227 3.88068L7.12267 1.69935C6.92127 1.62573 6.70508 1.60181 6.49246 1.62964C6.27984 1.65747 6.07709 1.73622 5.90142 1.8592C5.72576 1.98218 5.58239 2.14574 5.48348 2.336C5.38458 2.52626 5.33307 2.73759 5.33333 2.95202V7.03802C4.92991 6.79765 4.46959 6.66946 4 6.66668C2.52933 6.66668 1.33333 7.86268 1.33333 9.33335C1.33333 10.804 2.52933 12 4 12C5.47067 12 6.66667 10.804 6.66667 9.33335V2.95202L12.6667 5.13335V9.70402C12.2631 9.46416 11.8028 9.33621 11.3333 9.33335C9.86267 9.33335 8.66667 10.5294 8.66667 12C8.66667 13.4707 9.86267 14.6667 11.3333 14.6667C12.804 14.6667 14 13.4707 14 12V5.13335C14 4.57468 13.6473 4.07068 13.1227 3.88068ZM4 10.6667C3.26467 10.6667 2.66667 10.0687 2.66667 9.33335C2.66667 8.59802 3.26467 8.00002 4 8.00002C4.73533 8.00002 5.33333 8.59802 5.33333 9.33335C5.33333 10.0687 4.73533 10.6667 4 10.6667ZM11.3333 13.3334C10.598 13.3334 10 12.7354 10 12C10 11.2647 10.598 10.6667 11.3333 10.6667C12.0687 10.6667 12.6667 11.2647 12.6667 12C12.6667 12.7354 12.0687 13.3334 11.3333 13.3334Z" fill="#4F5E7B"/>
</svg>
