<svg width="16" height="16" viewBox="0 0 16 16" fill="none" xmlns="http://www.w3.org/2000/svg">
<path d="M5.64337 7.52865C6.3987 6.77331 7.71603 6.77331 8.47136 7.52865L8.9427 7.99998L9.88537 7.05731L9.41403 6.58598C8.78537 5.95665 7.94803 5.60931 7.05737 5.60931C6.1667 5.60931 5.32937 5.95665 4.7007 6.58598L3.28603 7.99998C2.66223 8.62579 2.31195 9.47337 2.31195 10.357C2.31195 11.2406 2.66223 12.0882 3.28603 12.714C3.59528 13.0237 3.96268 13.2692 4.36711 13.4365C4.77154 13.6037 5.20504 13.6894 5.6427 13.6886C6.08047 13.6896 6.51411 13.6039 6.91867 13.4367C7.32323 13.2694 7.69073 13.0238 8.00003 12.714L8.47136 12.2426L7.5287 11.3L7.05737 11.7713C6.68168 12.1453 6.17315 12.3553 5.64303 12.3553C5.11292 12.3553 4.60438 12.1453 4.2287 11.7713C3.85437 11.3958 3.64417 10.8872 3.64417 10.357C3.64417 9.82676 3.85437 9.31816 4.2287 8.94265L5.64337 7.52865Z" fill="#4F5E7B"/>
<path d="M7.99996 3.28601L7.52863 3.75734L8.47129 4.70001L8.94263 4.22867C9.31831 3.85467 9.82685 3.64469 10.357 3.64469C10.8871 3.64469 11.3956 3.85467 11.7713 4.22867C12.1456 4.60419 12.3558 5.11278 12.3558 5.64301C12.3558 6.17323 12.1456 6.68183 11.7713 7.05734L10.3566 8.47134C9.60129 9.22667 8.28396 9.22667 7.52863 8.47134L7.05729 8.00001L6.11463 8.94267L6.58596 9.41401C7.21463 10.0433 8.05196 10.3907 8.94263 10.3907C9.83329 10.3907 10.6706 10.0433 11.2993 9.41401L12.714 8.00001C13.3378 7.3742 13.688 6.52662 13.688 5.64301C13.688 4.75939 13.3378 3.91182 12.714 3.28601C12.0883 2.66188 11.2407 2.31137 10.357 2.31137C9.47324 2.31137 8.6256 2.66188 7.99996 3.28601Z" fill="#4F5E7B"/>
</svg>
